<?xml version="1.0" encoding="UTF-8"?>
<svg width="148px" height="38px" viewBox="0 0 148 38" version="1.1" xmlns="http://www.w3.org/2000/svg" xmlns:xlink="http://www.w3.org/1999/xlink">
    <title>incisive-header-logo</title>
    <g id="Page-1" stroke="none" stroke-width="1" fill="none" fill-rule="evenodd">
        <g id="01" transform="translate(-98.000000, -14.000000)">
            <g id="incisive-header-logo" transform="translate(98.000000, 14.000000)">
                <path d="M35.1757706,31.5658126 L30.7047217,23.2860923 L27.6929734,17.6807217 C26.7480503,21.2554909 24.4349035,24.2744839 21.3476028,26.1394909 L21.3476028,29.9367776 L21.3476028,37.2394909 L26.0432392,37.2394909 L26.0432392,27.7540364 L26.0432392,23.3595748 L27.7840503,26.4592951 L33.7350993,37.2394909 L39.872442,37.2394909 L39.872442,17.6693371 L35.1757706,17.6693371 L35.1757706,31.5658126 Z" id="Fill-1" fill="#2386FF"></path>
                <path d="M53.8970462,33.6660671 C50.201186,33.6660671 48.129186,31.3694797 48.129186,27.4490322 C48.129186,25.3459832 48.7253259,23.7045287 49.8482629,22.6478294 C50.8190601,21.7339552 52.1831441,21.2216476 53.8970462,21.2216476 C56.7814937,21.2216476 58.9093818,22.8889762 58.9093818,24.9765007 L63.3907804,24.9765007 C63.3907804,20.8014517 60.0023049,17.1262909 53.8691021,17.1262909 C51.1398993,17.1262909 48.9323189,17.8259273 47.2577455,19.0254517 C44.7055217,20.852165 43.3962909,23.8649483 43.3962909,27.4159133 C43.3962909,33.2976196 47.1200951,37.7521091 53.9529343,37.7521091 C60.058193,37.7521091 63.4477035,34.1090322 63.4477035,30.1947944 L58.9663049,30.1947944 C58.9663049,32.0215077 56.7256056,33.6660671 53.8970462,33.6660671" id="Fill-3" fill="#2386FF"></path>
                <polygon id="Fill-5" fill="#2386FF" points="99.8848895 37.2399049 104.32075 37.2399049 104.32075 17.670786 99.8848895 17.670786"></polygon>
                <path d="M89.4153902,25.7956755 L84.7083692,25.2637035 C82.4687049,25.012207 81.3219636,24.5361231 81.3219636,23.3045147 C81.3219636,21.8483189 82.9178797,21.1911161 85.4669986,21.1911161 C88.6588308,21.1911161 90.2547469,22.3668364 90.2547469,24.4543608 L94.9586629,24.4543608 C94.9586629,21.846249 94.1472503,20.0423049 92.4954462,18.8934937 C90.843642,17.7477874 88.6298517,17.1495776 85.8023273,17.1495776 C79.8367888,17.1495776 76.7846769,19.5558713 76.7846769,23.6708923 C76.7846769,27.0604028 78.9684531,28.7660252 83.1414322,29.2152 L88.0989147,29.7751161 C89.8914741,29.9686545 90.7856839,30.5285706 90.7856839,31.4807385 C90.7856839,32.8531021 89.302579,33.6655497 86.5299077,33.6655497 C85.2134322,33.6655497 84.0656559,33.4896056 83.028621,33.0404308 C81.9936559,32.5922909 81.489628,31.761214 81.489628,30.4561231 L76.6718657,30.4561231 C76.6718657,35.1517594 79.920621,37.7464168 86.4471105,37.7464168 C89.1628587,37.7464168 91.3197259,37.2454937 92.915642,36.2943608 C94.511558,35.342193 95.2950266,33.7059133 95.2950266,31.4093259 C95.2950266,28.1605706 93.447614,26.2717594 89.4153902,25.7956755" id="Fill-7" fill="#2386FF"></path>
                <polygon id="Fill-8" fill="#2386FF" points="118.259969 32.0084671 112.854347 17.6700615 108.01071 17.6700615 115.654962 37.2402154 120.947773 37.2402154 128.340529 17.6700615 123.496892 17.6700615"></polygon>
                <polygon id="Fill-9" fill="#2386FF" points="147.112621 21.5839888 147.112621 17.670786 131.979362 17.670786 131.979362 37.2399049 147.112621 37.2399049 147.112621 33.3267021 136.414187 33.3267021 136.414187 29.4114294 145.285908 29.4114294 145.285908 25.2374154 136.414187 25.2374154 136.414187 21.5839888"></polygon>
                <polygon id="Fill-10" fill="#2386FF" points="67.5305371 26.0381678 67.5305371 37.2395944 71.9663972 37.2395944 71.9663972 22.8287413 71.9663972 17.6704755 67.5305371 17.6704755"></polygon>
                <path d="M11.6929315,27.9534741 L11.6929315,30.1082713 L11.6929315,37.2402154 L16.1277566,37.2402154 L16.1277566,30.7220056 L16.1277566,28.0083273 C15.4591692,28.105614 14.7750573,28.1594322 14.0795608,28.1594322 C13.2650434,28.1594322 12.4691552,28.0859497 11.6929315,27.9534741" id="Fill-11" fill="#2386FF"></path>
                <polygon id="Fill-12" fill="#5185FF" points="13.0290713 10.3722126 14.8961483 10.3722126 13.9667497 7.73615664"></polygon>
                <path d="M15.8732587,13.1668252 L15.3785455,11.7654825 L12.5354965,11.7654825 L12.0325035,13.1668252 L10.3341259,13.1668252 L12.9111888,6.23566434 L15.0245874,6.23566434 L17.610965,13.1668252 L15.8732587,13.1668252 Z M27.6863497,17.669958 L27.6915245,17.6803077 C27.9947692,16.5304615 28.1582937,15.3247273 28.1582937,14.0796643 C28.1582937,6.30397203 21.8543217,-5.14770821e-14 14.0786294,-5.14770821e-14 C6.30293706,-5.14770821e-14 1.76492853e-13,6.30397203 1.76492853e-13,14.0796643 C1.76492853e-13,21.0418741 5.05476923,26.819049 11.693035,27.9533706 L11.693035,17.669958 L16.1288951,17.669958 L16.1288951,28.0082238 C18.0146014,27.7329231 19.7802517,27.085035 21.3471888,26.1390769 L21.3471888,17.669958 L27.6863497,17.669958 Z" id="Fill-13" fill="#2386FF"></path>
            </g>
        </g>
    </g>
</svg>